<svg xmlns="http://www.w3.org/2000/svg" xmlns:xlink="http://www.w3.org/1999/xlink" width="2000" zoomAndPan="magnify" viewBox="0 0 1500 1499.999933" height="2000" preserveAspectRatio="xMidYMid meet" version="1.0"><defs><g/><clipPath id="13da1c9fa0"><rect x="0" width="1077" y="0" height="126"/></clipPath><clipPath id="37582cad9a"><rect x="0" width="793" y="0" height="339"/></clipPath><clipPath id="86eac11ba4"><path d="M 284 592 L 470 592 L 470 777.53125 L 284 777.53125 Z M 284 592 " clip-rule="nonzero"/></clipPath><clipPath id="930f136076"><path d="M 385 592 L 571 592 L 571 777.53125 L 385 777.53125 Z M 385 592 " clip-rule="nonzero"/></clipPath><clipPath id="99ec136391"><path d="M 537 535.214844 L 595 535.214844 L 595 616.214844 L 537 616.214844 Z M 537 535.214844 " clip-rule="nonzero"/></clipPath><clipPath id="47f5592401"><path d="M 478 535.214844 L 540 535.214844 L 540 616.214844 L 478 616.214844 Z M 478 535.214844 " clip-rule="nonzero"/></clipPath></defs><g transform="matrix(1, 0, 0, 1, 302, 825)"><g clip-path="url(#13da1c9fa0)"><g fill="#000000" fill-opacity="1"><g transform="translate(1.944106, 89.77746)"><g><path d="M 3.875 -31.4375 C 3.875 -37.5625 5.253906 -43.066406 8.015625 -47.953125 C 10.773438 -52.847656 14.539062 -56.675781 19.3125 -59.4375 C 24.09375 -62.195312 29.394531 -63.578125 35.21875 -63.578125 C 42.0625 -63.578125 48.035156 -61.925781 53.140625 -58.625 C 58.242188 -55.320312 61.96875 -50.640625 64.3125 -44.578125 L 54.484375 -44.578125 C 52.742188 -48.359375 50.238281 -51.269531 46.96875 -53.3125 C 43.695312 -55.351562 39.78125 -56.375 35.21875 -56.375 C 30.832031 -56.375 26.894531 -55.351562 23.40625 -53.3125 C 19.925781 -51.269531 17.195312 -48.375 15.21875 -44.625 C 13.238281 -40.875 12.25 -36.476562 12.25 -31.4375 C 12.25 -26.445312 13.238281 -22.078125 15.21875 -18.328125 C 17.195312 -14.578125 19.925781 -11.679688 23.40625 -9.640625 C 26.894531 -7.597656 30.832031 -6.578125 35.21875 -6.578125 C 39.78125 -6.578125 43.695312 -7.582031 46.96875 -9.59375 C 50.238281 -11.601562 52.742188 -14.5 54.484375 -18.28125 L 64.3125 -18.28125 C 61.96875 -12.28125 58.242188 -7.640625 53.140625 -4.359375 C 48.035156 -1.085938 42.0625 0.546875 35.21875 0.546875 C 29.394531 0.546875 24.09375 -0.816406 19.3125 -3.546875 C 14.539062 -6.285156 10.773438 -10.085938 8.015625 -14.953125 C 5.253906 -19.816406 3.875 -25.3125 3.875 -31.4375 Z M 3.875 -31.4375 "/></g></g></g><g fill="#000000" fill-opacity="1"><g transform="translate(111.785933, 89.77746)"><g><path d="M 35.390625 0.625 C 29.566406 0.625 24.253906 -0.738281 19.453125 -3.46875 C 14.648438 -6.195312 10.851562 -10.007812 8.0625 -14.90625 C 5.269531 -19.800781 3.875 -25.3125 3.875 -31.4375 C 3.875 -37.5625 5.269531 -43.066406 8.0625 -47.953125 C 10.851562 -52.847656 14.648438 -56.660156 19.453125 -59.390625 C 24.253906 -62.128906 29.566406 -63.5 35.390625 -63.5 C 41.273438 -63.5 46.617188 -62.128906 51.421875 -59.390625 C 56.222656 -56.660156 60.003906 -52.863281 62.765625 -48 C 65.535156 -43.132812 66.921875 -37.613281 66.921875 -31.4375 C 66.921875 -25.25 65.535156 -19.722656 62.765625 -14.859375 C 60.003906 -9.992188 56.222656 -6.195312 51.421875 -3.46875 C 46.617188 -0.738281 41.273438 0.625 35.390625 0.625 Z M 35.390625 -6.484375 C 39.773438 -6.484375 43.722656 -7.503906 47.234375 -9.546875 C 50.742188 -11.585938 53.503906 -14.5 55.515625 -18.28125 C 57.535156 -22.0625 58.546875 -26.445312 58.546875 -31.4375 C 58.546875 -36.476562 57.535156 -40.875 55.515625 -44.625 C 53.503906 -48.375 50.757812 -51.269531 47.28125 -53.3125 C 43.800781 -55.351562 39.835938 -56.375 35.390625 -56.375 C 30.953125 -56.375 26.988281 -55.351562 23.5 -53.3125 C 20.019531 -51.269531 17.273438 -48.375 15.265625 -44.625 C 13.253906 -40.875 12.25 -36.476562 12.25 -31.4375 C 12.25 -26.445312 13.253906 -22.0625 15.265625 -18.28125 C 17.273438 -14.5 20.035156 -11.585938 23.546875 -9.546875 C 27.054688 -7.503906 31.003906 -6.484375 35.390625 -6.484375 Z M 35.390625 -6.484375 "/></g></g></g><g fill="#000000" fill-opacity="1"><g transform="translate(222.887684, 89.77746)"><g><path d="M 56.296875 0 L 48.09375 0 L 15.125 -49.984375 L 15.125 0 L 6.9375 0 L 6.9375 -62.859375 L 15.125 -62.859375 L 48.09375 -12.96875 L 48.09375 -62.859375 L 56.296875 -62.859375 Z M 56.296875 0 "/></g></g></g><g fill="#000000" fill-opacity="1"><g transform="translate(326.519748, 89.77746)"><g><path d="M 26.84375 0.625 C 22.695312 0.625 18.988281 -0.109375 15.71875 -1.578125 C 12.445312 -3.046875 9.878906 -5.085938 8.015625 -7.703125 C 6.148438 -10.316406 5.191406 -13.332031 5.140625 -16.75 L 13.875 -16.75 C 14.164062 -13.8125 15.378906 -11.332031 17.515625 -9.3125 C 19.648438 -7.300781 22.757812 -6.296875 26.84375 -6.296875 C 30.738281 -6.296875 33.8125 -7.269531 36.0625 -9.21875 C 38.320312 -11.175781 39.453125 -13.6875 39.453125 -16.75 C 39.453125 -19.15625 38.789062 -21.109375 37.46875 -22.609375 C 36.144531 -24.109375 34.492188 -25.25 32.515625 -26.03125 C 30.535156 -26.8125 27.863281 -27.648438 24.5 -28.546875 C 20.351562 -29.628906 17.035156 -30.707031 14.546875 -31.78125 C 12.054688 -32.863281 9.925781 -34.5625 8.15625 -36.875 C 6.382812 -39.1875 5.5 -42.296875 5.5 -46.203125 C 5.5 -49.617188 6.367188 -52.648438 8.109375 -55.296875 C 9.847656 -57.941406 12.289062 -59.984375 15.4375 -61.421875 C 18.59375 -62.859375 22.210938 -63.578125 26.296875 -63.578125 C 32.179688 -63.578125 37 -62.109375 40.75 -59.171875 C 44.5 -56.234375 46.617188 -52.332031 47.109375 -47.46875 L 38.09375 -47.46875 C 37.789062 -49.863281 36.53125 -51.976562 34.3125 -53.8125 C 32.09375 -55.644531 29.148438 -56.5625 25.484375 -56.5625 C 22.066406 -56.5625 19.273438 -55.675781 17.109375 -53.90625 C 14.953125 -52.132812 13.875 -49.65625 13.875 -46.46875 C 13.875 -44.1875 14.519531 -42.328125 15.8125 -40.890625 C 17.101562 -39.453125 18.691406 -38.351562 20.578125 -37.59375 C 22.472656 -36.84375 25.128906 -35.988281 28.546875 -35.03125 C 32.691406 -33.894531 36.023438 -32.769531 38.546875 -31.65625 C 41.066406 -30.539062 43.226562 -28.828125 45.03125 -26.515625 C 46.832031 -24.210938 47.734375 -21.078125 47.734375 -17.109375 C 47.734375 -14.046875 46.921875 -11.160156 45.296875 -8.453125 C 43.679688 -5.753906 41.28125 -3.566406 38.09375 -1.890625 C 34.914062 -0.210938 31.164062 0.625 26.84375 0.625 Z M 26.84375 0.625 "/></g></g></g><g fill="#000000" fill-opacity="1"><g transform="translate(419.712186, 89.77746)"><g><path d="M 14.953125 -62.78125 L 14.953125 -23.0625 C 14.953125 -17.476562 16.316406 -13.332031 19.046875 -10.625 C 21.773438 -7.925781 25.570312 -6.578125 30.4375 -6.578125 C 35.238281 -6.578125 39.003906 -7.925781 41.734375 -10.625 C 44.472656 -13.332031 45.84375 -17.476562 45.84375 -23.0625 L 45.84375 -62.78125 L 54.03125 -62.78125 L 54.03125 -23.140625 C 54.03125 -17.921875 52.976562 -13.523438 50.875 -9.953125 C 48.78125 -6.378906 45.945312 -3.722656 42.375 -1.984375 C 38.800781 -0.242188 34.789062 0.625 30.34375 0.625 C 25.90625 0.625 21.898438 -0.242188 18.328125 -1.984375 C 14.753906 -3.722656 11.929688 -6.378906 9.859375 -9.953125 C 7.785156 -13.523438 6.75 -17.921875 6.75 -23.140625 L 6.75 -62.78125 Z M 14.953125 -62.78125 "/></g></g></g><g fill="#000000" fill-opacity="1"><g transform="translate(520.824308, 89.77746)"><g><path d="M 15.125 -6.671875 L 37.109375 -6.671875 L 37.109375 0 L 6.9375 0 L 6.9375 -62.78125 L 15.125 -62.78125 Z M 15.125 -6.671875 "/></g></g></g><g fill="#000000" fill-opacity="1"><g transform="translate(600.067319, 89.77746)"><g><path d="M 45.578125 -62.78125 L 45.578125 -56.109375 L 28.453125 -56.109375 L 28.453125 0 L 20.265625 0 L 20.265625 -56.109375 L 3.0625 -56.109375 L 3.0625 -62.78125 Z M 45.578125 -62.78125 "/></g></g></g><g fill="#000000" fill-opacity="1"><g transform="translate(689.119947, 89.77746)"><g><path d="M 44.046875 -13.953125 L 16.65625 -13.953125 L 11.625 0 L 2.96875 0 L 25.671875 -62.40625 L 35.125 -62.40625 L 57.734375 0 L 49.078125 0 Z M 41.703125 -20.625 L 30.34375 -52.328125 L 19 -20.625 Z M 41.703125 -20.625 "/></g></g></g><g fill="#000000" fill-opacity="1"><g transform="translate(790.142106, 89.77746)"><g><path d="M 56.296875 0 L 48.09375 0 L 15.125 -49.984375 L 15.125 0 L 6.9375 0 L 6.9375 -62.859375 L 15.125 -62.859375 L 48.09375 -12.96875 L 48.09375 -62.859375 L 56.296875 -62.859375 Z M 56.296875 0 "/></g></g></g><g fill="#000000" fill-opacity="1"><g transform="translate(893.774169, 89.77746)"><g><path d="M 45.578125 -62.78125 L 45.578125 -56.109375 L 28.453125 -56.109375 L 28.453125 0 L 20.265625 0 L 20.265625 -56.109375 L 3.0625 -56.109375 L 3.0625 -62.78125 Z M 45.578125 -62.78125 "/></g></g></g><g fill="#000000" fill-opacity="1"><g transform="translate(982.826797, 89.77746)"><g><path d="M 26.84375 0.625 C 22.695312 0.625 18.988281 -0.109375 15.71875 -1.578125 C 12.445312 -3.046875 9.878906 -5.085938 8.015625 -7.703125 C 6.148438 -10.316406 5.191406 -13.332031 5.140625 -16.75 L 13.875 -16.75 C 14.164062 -13.8125 15.378906 -11.332031 17.515625 -9.3125 C 19.648438 -7.300781 22.757812 -6.296875 26.84375 -6.296875 C 30.738281 -6.296875 33.8125 -7.269531 36.0625 -9.21875 C 38.320312 -11.175781 39.453125 -13.6875 39.453125 -16.75 C 39.453125 -19.15625 38.789062 -21.109375 37.46875 -22.609375 C 36.144531 -24.109375 34.492188 -25.25 32.515625 -26.03125 C 30.535156 -26.8125 27.863281 -27.648438 24.5 -28.546875 C 20.351562 -29.628906 17.035156 -30.707031 14.546875 -31.78125 C 12.054688 -32.863281 9.925781 -34.5625 8.15625 -36.875 C 6.382812 -39.1875 5.5 -42.296875 5.5 -46.203125 C 5.5 -49.617188 6.367188 -52.648438 8.109375 -55.296875 C 9.847656 -57.941406 12.289062 -59.984375 15.4375 -61.421875 C 18.59375 -62.859375 22.210938 -63.578125 26.296875 -63.578125 C 32.179688 -63.578125 37 -62.109375 40.75 -59.171875 C 44.5 -56.234375 46.617188 -52.332031 47.109375 -47.46875 L 38.09375 -47.46875 C 37.789062 -49.863281 36.53125 -51.976562 34.3125 -53.8125 C 32.09375 -55.644531 29.148438 -56.5625 25.484375 -56.5625 C 22.066406 -56.5625 19.273438 -55.675781 17.109375 -53.90625 C 14.953125 -52.132812 13.875 -49.65625 13.875 -46.46875 C 13.875 -44.1875 14.519531 -42.328125 15.8125 -40.890625 C 17.101562 -39.453125 18.691406 -38.351562 20.578125 -37.59375 C 22.472656 -36.84375 25.128906 -35.988281 28.546875 -35.03125 C 32.691406 -33.894531 36.023438 -32.769531 38.546875 -31.65625 C 41.066406 -30.539062 43.226562 -28.828125 45.03125 -26.515625 C 46.832031 -24.210938 47.734375 -21.078125 47.734375 -17.109375 C 47.734375 -14.046875 46.921875 -11.160156 45.296875 -8.453125 C 43.679688 -5.753906 41.28125 -3.566406 38.09375 -1.890625 C 34.914062 -0.210938 31.164062 0.625 26.84375 0.625 Z M 26.84375 0.625 "/></g></g></g></g></g><g transform="matrix(1, 0, 0, 1, 579, 521)"><g clip-path="url(#37582cad9a)"><g fill="#231f20" fill-opacity="1"><g transform="translate(0.270862, 253.546198)"><g><path d="M 150.03125 0 L 128.1875 0 L 40.328125 -133.21875 L 40.328125 0 L 18.484375 0 L 18.484375 -167.546875 L 40.328125 -167.546875 L 128.1875 -34.5625 L 128.1875 -167.546875 L 150.03125 -167.546875 Z M 150.03125 0 "/></g></g></g><g fill="#231f20" fill-opacity="1"><g transform="translate(205.503819, 253.546198)"><g><path d="M 150.03125 0 L 128.1875 0 L 40.328125 -133.21875 L 40.328125 0 L 18.484375 0 L 18.484375 -167.546875 L 40.328125 -167.546875 L 128.1875 -34.5625 L 128.1875 -167.546875 L 150.03125 -167.546875 Z M 150.03125 0 "/></g></g></g><g fill="#231f20" fill-opacity="1"><g transform="translate(410.736776, 253.546198)"><g><path d="M 117.390625 -37.203125 L 44.40625 -37.203125 L 30.96875 0 L 7.921875 0 L 68.40625 -166.359375 L 93.625 -166.359375 L 153.875 0 L 130.828125 0 Z M 111.140625 -54.96875 L 80.890625 -139.46875 L 50.65625 -54.96875 Z M 111.140625 -54.96875 "/></g></g></g><g fill="#231f20" fill-opacity="1"><g transform="translate(609.00869, 253.546198)"><g><path d="M 106.578125 0 L 66.734375 -68.40625 L 40.328125 -68.40625 L 40.328125 0 L 18.484375 0 L 18.484375 -167.3125 L 72.5 -167.3125 C 85.132812 -167.3125 95.8125 -165.148438 104.53125 -160.828125 C 113.257812 -156.503906 119.78125 -150.660156 124.09375 -143.296875 C 128.414062 -135.941406 130.578125 -127.546875 130.578125 -118.109375 C 130.578125 -106.578125 127.253906 -96.410156 120.609375 -87.609375 C 113.972656 -78.816406 104.015625 -72.976562 90.734375 -70.09375 L 132.75 0 Z M 40.328125 -85.9375 L 72.5 -85.9375 C 84.332031 -85.9375 93.207031 -88.851562 99.125 -94.6875 C 105.050781 -100.53125 108.015625 -108.335938 108.015625 -118.109375 C 108.015625 -128.023438 105.09375 -135.703125 99.25 -141.140625 C 93.414062 -146.585938 84.5 -149.3125 72.5 -149.3125 L 40.328125 -149.3125 Z M 40.328125 -85.9375 "/></g></g></g></g></g><g clip-path="url(#86eac11ba4)"><path fill="#008037" d="M 376.734375 777.324219 C 375.136719 777.324219 373.539062 777.28125 371.945312 777.195312 C 370.351562 777.113281 368.757812 776.988281 367.171875 776.820312 C 365.582031 776.652344 364 776.445312 362.421875 776.195312 C 360.84375 775.945312 359.273438 775.65625 357.710938 775.328125 C 356.148438 774.996094 354.59375 774.625 353.050781 774.214844 C 351.507812 773.804688 349.976562 773.351562 348.457031 772.863281 C 346.9375 772.371094 345.429688 771.84375 343.9375 771.273438 C 342.445312 770.703125 340.96875 770.097656 339.507812 769.453125 C 338.046875 768.808594 336.605469 768.125 335.179688 767.40625 C 333.753906 766.683594 332.347656 765.925781 330.960938 765.132812 C 329.574219 764.339844 328.210938 763.511719 326.867188 762.648438 C 325.523438 761.785156 324.203125 760.886719 322.90625 759.953125 C 321.609375 759.023438 320.339844 758.058594 319.09375 757.058594 C 317.84375 756.0625 316.625 755.03125 315.433594 753.96875 C 314.238281 752.90625 313.074219 751.816406 311.9375 750.695312 C 310.800781 749.570312 309.695312 748.421875 308.617188 747.242188 C 307.539062 746.0625 306.496094 744.855469 305.480469 743.621094 C 304.464844 742.386719 303.484375 741.128906 302.535156 739.84375 C 301.585938 738.558594 300.671875 737.25 299.789062 735.917969 C 298.910156 734.585938 298.0625 733.234375 297.253906 731.859375 C 296.441406 730.480469 295.667969 729.085938 294.929688 727.667969 C 294.191406 726.253906 293.488281 724.820312 292.824219 723.367188 C 292.160156 721.914062 291.535156 720.445312 290.945312 718.960938 C 290.359375 717.476562 289.808594 715.976562 289.300781 714.464844 C 288.789062 712.949219 288.320312 711.425781 287.890625 709.886719 C 287.457031 708.347656 287.066406 706.800781 286.714844 705.242188 C 286.367188 703.683594 286.054688 702.117188 285.785156 700.542969 C 285.515625 698.96875 285.289062 697.390625 285.101562 695.804688 C 284.914062 694.21875 284.769531 692.628906 284.664062 691.035156 C 284.558594 689.441406 284.496094 687.84375 284.472656 686.246094 C 284.449219 684.652344 284.46875 683.054688 284.53125 681.457031 C 284.589844 679.863281 284.691406 678.269531 284.835938 676.679688 C 284.980469 675.085938 285.164062 673.503906 285.390625 671.921875 C 285.613281 670.339844 285.882812 668.765625 286.1875 667.199219 C 286.496094 665.632812 286.84375 664.074219 287.230469 662.523438 C 287.621094 660.972656 288.046875 659.4375 288.515625 657.910156 C 288.984375 656.382812 289.492188 654.867188 290.035156 653.367188 C 290.582031 651.867188 291.167969 650.382812 291.792969 648.910156 C 292.414062 647.441406 293.074219 645.988281 293.773438 644.550781 C 294.472656 643.117188 295.210938 641.699219 295.980469 640.300781 C 296.753906 638.902344 297.5625 637.527344 298.40625 636.167969 C 299.25 634.8125 300.128906 633.480469 301.042969 632.171875 C 301.953125 630.859375 302.898438 629.574219 303.878906 628.3125 C 304.859375 627.050781 305.871094 625.816406 306.914062 624.605469 C 307.957031 623.398438 309.035156 622.21875 310.136719 621.0625 C 311.242188 619.910156 312.378906 618.789062 313.539062 617.691406 C 314.703125 616.597656 315.894531 615.535156 317.113281 614.503906 C 318.332031 613.46875 319.574219 612.46875 320.847656 611.503906 C 322.117188 610.535156 323.410156 609.601562 324.730469 608.699219 C 326.050781 607.796875 327.390625 606.933594 328.753906 606.101562 C 330.117188 605.269531 331.503906 604.472656 332.90625 603.714844 C 334.3125 602.957031 335.734375 602.234375 337.179688 601.546875 C 338.621094 600.863281 340.082031 600.214844 341.554688 599.605469 C 343.03125 598.996094 344.523438 598.421875 346.027344 597.890625 C 347.535156 597.359375 349.054688 596.867188 350.585938 596.410156 C 352.117188 595.957031 353.65625 595.542969 355.210938 595.171875 C 356.761719 594.796875 358.324219 594.464844 359.894531 594.171875 C 361.464844 593.878906 363.042969 593.625 364.625 593.414062 C 366.207031 593.203125 367.796875 593.035156 369.386719 592.90625 C 370.980469 592.777344 372.574219 592.691406 374.167969 592.644531 C 375.765625 592.597656 377.363281 592.59375 378.960938 592.632812 C 380.554688 592.667969 382.148438 592.746094 383.742188 592.867188 C 385.335938 592.984375 386.925781 593.148438 388.507812 593.347656 C 390.09375 593.550781 391.671875 593.792969 393.242188 594.078125 L 404.46875 596.105469 L 400.410156 618.554688 L 389.183594 616.527344 C 388.019531 616.316406 386.855469 616.132812 385.679688 615.980469 C 384.507812 615.828125 383.335938 615.707031 382.15625 615.613281 C 380.976562 615.523438 379.796875 615.460938 378.617188 615.429688 C 377.433594 615.394531 376.253906 615.394531 375.074219 615.421875 C 373.890625 615.449219 372.710938 615.507812 371.53125 615.597656 C 370.355469 615.683594 369.179688 615.804688 368.003906 615.949219 C 366.832031 616.097656 365.664062 616.277344 364.5 616.484375 C 363.339844 616.691406 362.179688 616.929688 361.03125 617.195312 C 359.878906 617.460938 358.734375 617.757812 357.597656 618.082031 C 356.460938 618.410156 355.335938 618.761719 354.214844 619.144531 C 353.097656 619.527344 351.992188 619.9375 350.894531 620.375 C 349.796875 620.816406 348.710938 621.28125 347.636719 621.777344 C 346.5625 622.269531 345.503906 622.792969 344.457031 623.339844 C 343.410156 623.886719 342.375 624.464844 341.359375 625.0625 C 340.339844 625.664062 339.339844 626.292969 338.355469 626.941406 C 337.367188 627.59375 336.398438 628.273438 335.449219 628.972656 C 334.496094 629.675781 333.5625 630.398438 332.648438 631.148438 C 331.734375 631.898438 330.839844 632.667969 329.964844 633.464844 C 329.089844 634.257812 328.238281 635.074219 327.402344 635.914062 C 326.570312 636.75 325.757812 637.609375 324.96875 638.488281 C 324.179688 639.367188 323.414062 640.265625 322.667969 641.183594 C 321.925781 642.101562 321.207031 643.039062 320.507812 643.996094 C 319.8125 644.949219 319.140625 645.921875 318.496094 646.914062 C 317.847656 647.902344 317.230469 648.90625 316.632812 649.929688 C 316.039062 650.949219 315.46875 651.984375 314.925781 653.035156 C 314.382812 654.085938 313.871094 655.148438 313.382812 656.222656 C 312.894531 657.300781 312.433594 658.386719 312 659.488281 C 311.566406 660.585938 311.164062 661.699219 310.785156 662.816406 C 310.410156 663.9375 310.0625 665.066406 309.742188 666.207031 C 309.425781 667.34375 309.136719 668.488281 308.875 669.640625 C 308.613281 670.792969 308.382812 671.953125 308.183594 673.117188 C 307.980469 674.28125 307.8125 675.453125 307.667969 676.625 C 307.527344 677.796875 307.414062 678.972656 307.335938 680.152344 C 307.253906 681.332031 307.199219 682.511719 307.179688 683.695312 C 307.15625 684.875 307.167969 686.058594 307.207031 687.238281 C 307.242188 688.417969 307.3125 689.597656 307.410156 690.777344 C 307.511719 691.953125 307.640625 693.128906 307.796875 694.300781 C 307.957031 695.472656 308.144531 696.636719 308.363281 697.800781 C 308.582031 698.960938 308.828125 700.117188 309.105469 701.265625 C 309.382812 702.414062 309.691406 703.554688 310.023438 704.6875 C 310.359375 705.820312 310.722656 706.945312 311.117188 708.058594 C 311.507812 709.175781 311.929688 710.277344 312.378906 711.371094 C 312.828125 712.464844 313.304688 713.546875 313.808594 714.617188 C 314.3125 715.683594 314.84375 716.742188 315.398438 717.78125 C 315.957031 718.824219 316.542969 719.851562 317.152344 720.863281 C 317.761719 721.875 318.398438 722.871094 319.058594 723.851562 C 319.71875 724.832031 320.402344 725.792969 321.113281 726.738281 C 321.824219 727.683594 322.558594 728.609375 323.316406 729.515625 C 324.070312 730.425781 324.851562 731.3125 325.652344 732.179688 C 326.457031 733.046875 327.28125 733.894531 328.125 734.71875 C 328.972656 735.546875 329.835938 736.351562 330.722656 737.132812 C 331.609375 737.914062 332.515625 738.671875 333.441406 739.40625 C 334.367188 740.140625 335.308594 740.855469 336.269531 741.542969 C 337.230469 742.230469 338.210938 742.890625 339.207031 743.527344 C 340.199219 744.164062 341.210938 744.777344 342.238281 745.363281 C 343.265625 745.949219 344.304688 746.507812 345.359375 747.042969 C 346.414062 747.574219 347.480469 748.082031 348.5625 748.558594 C 349.644531 749.039062 350.734375 749.488281 351.839844 749.910156 C 352.941406 750.332031 354.054688 750.726562 355.179688 751.09375 C 356.304688 751.460938 357.4375 751.796875 358.578125 752.105469 C 359.71875 752.414062 360.867188 752.691406 362.019531 752.941406 C 363.175781 753.191406 364.335938 753.414062 365.503906 753.605469 C 366.667969 753.792969 367.839844 753.957031 369.015625 754.085938 C 370.191406 754.21875 371.367188 754.316406 372.546875 754.390625 C 373.726562 754.460938 374.90625 754.5 376.089844 754.511719 C 377.269531 754.523438 378.453125 754.503906 379.632812 754.453125 C 380.8125 754.40625 381.992188 754.324219 383.167969 754.214844 C 384.34375 754.105469 385.519531 753.96875 386.6875 753.796875 C 387.859375 753.628906 389.023438 753.429688 390.183594 753.199219 C 391.339844 752.972656 392.496094 752.714844 393.640625 752.425781 C 394.789062 752.140625 395.925781 751.824219 397.054688 751.476562 C 398.1875 751.132812 399.308594 750.757812 400.417969 750.355469 C 401.527344 749.953125 402.628906 749.523438 403.71875 749.0625 C 404.808594 748.605469 405.882812 748.117188 406.949219 747.605469 C 408.011719 747.089844 409.0625 746.550781 410.101562 745.984375 C 411.136719 745.417969 412.160156 744.824219 413.167969 744.203125 C 414.171875 743.585938 415.164062 742.941406 416.136719 742.269531 C 417.109375 741.601562 418.066406 740.90625 419.003906 740.1875 C 419.945312 739.46875 420.863281 738.730469 421.765625 737.964844 C 422.664062 737.199219 423.546875 736.410156 424.40625 735.601562 C 425.265625 734.789062 426.105469 733.957031 426.921875 733.105469 C 427.742188 732.253906 428.535156 731.378906 429.3125 730.484375 C 430.085938 729.59375 430.835938 728.679688 431.5625 727.75 C 432.289062 726.816406 432.992188 725.867188 433.671875 724.898438 C 434.347656 723.933594 435.003906 722.949219 435.628906 721.945312 C 436.257812 720.945312 436.863281 719.929688 437.4375 718.898438 C 438.015625 717.867188 438.566406 716.820312 439.089844 715.761719 C 439.613281 714.703125 440.109375 713.628906 440.578125 712.542969 C 441.046875 711.460938 441.484375 710.363281 441.898438 709.253906 C 442.3125 708.148438 442.695312 707.03125 443.050781 705.902344 C 443.40625 704.777344 443.734375 703.640625 444.03125 702.5 C 444.332031 701.355469 444.597656 700.203125 444.839844 699.046875 C 445.078125 697.890625 445.289062 696.726562 445.46875 695.558594 C 445.648438 694.390625 445.796875 693.21875 445.917969 692.042969 C 446.039062 690.867188 446.128906 689.6875 446.191406 688.507812 C 446.25 687.328125 446.28125 686.148438 446.28125 684.964844 C 446.292969 679.859375 445.746094 674.816406 444.640625 669.832031 C 443.53125 664.847656 441.890625 660.046875 439.714844 655.425781 L 434.867188 645.109375 L 455.511719 635.410156 L 460.363281 645.734375 C 461.183594 647.484375 461.949219 649.261719 462.660156 651.058594 C 463.367188 652.859375 464.019531 654.679688 464.613281 656.519531 C 465.210938 658.359375 465.746094 660.214844 466.222656 662.089844 C 466.703125 663.964844 467.121094 665.851562 467.480469 667.75 C 467.839844 669.652344 468.140625 671.558594 468.378906 673.480469 C 468.617188 675.398438 468.796875 677.320312 468.917969 679.253906 C 469.035156 681.183594 469.09375 683.113281 469.09375 685.046875 C 469.089844 686.980469 469.027344 688.914062 468.902344 690.84375 C 468.777344 692.773438 468.59375 694.699219 468.351562 696.617188 C 468.105469 698.535156 467.800781 700.441406 467.4375 702.34375 C 467.074219 704.242188 466.648438 706.128906 466.167969 708 C 465.683594 709.871094 465.144531 711.726562 464.542969 713.566406 C 463.945312 715.40625 463.289062 717.222656 462.574219 719.019531 C 461.863281 720.816406 461.09375 722.589844 460.269531 724.339844 C 459.441406 726.089844 458.5625 727.8125 457.632812 729.503906 C 456.699219 731.199219 455.714844 732.863281 454.675781 734.492188 C 453.640625 736.125 452.550781 737.722656 451.414062 739.289062 C 450.277344 740.851562 449.089844 742.378906 447.859375 743.867188 C 446.625 745.355469 445.34375 746.804688 444.019531 748.214844 C 442.695312 749.625 441.328125 750.992188 439.917969 752.3125 C 438.507812 753.636719 437.058594 754.914062 435.566406 756.148438 C 434.078125 757.378906 432.550781 758.5625 430.984375 759.699219 C 429.421875 760.835938 427.820312 761.921875 426.1875 762.957031 C 424.554688 763.992188 422.890625 764.976562 421.195312 765.910156 C 419.503906 766.839844 417.78125 767.71875 416.03125 768.539062 C 414.28125 769.363281 412.507812 770.132812 410.707031 770.84375 C 408.910156 771.554688 407.09375 772.210938 405.253906 772.808594 C 403.414062 773.40625 401.558594 773.945312 399.683594 774.425781 C 397.8125 774.90625 395.925781 775.328125 394.027344 775.691406 C 392.125 776.054688 390.21875 776.359375 388.300781 776.601562 C 386.378906 776.84375 384.457031 777.027344 382.527344 777.148438 C 380.597656 777.269531 378.664062 777.332031 376.730469 777.332031 Z M 376.734375 777.324219 " fill-opacity="1" fill-rule="nonzero"/></g><g clip-path="url(#930f136076)"><path fill="#008037" d="M 477.828125 777.335938 C 472.117188 777.335938 466.449219 776.808594 460.835938 775.75 L 449.625 773.640625 L 453.851562 751.226562 L 465.0625 753.335938 C 466.328125 753.574219 467.601562 753.777344 468.878906 753.941406 C 470.160156 754.109375 471.441406 754.242188 472.726562 754.335938 C 474.011719 754.429688 475.300781 754.492188 476.589844 754.515625 C 477.878906 754.539062 479.167969 754.523438 480.457031 754.476562 C 481.746094 754.429688 483.03125 754.34375 484.316406 754.222656 C 485.601562 754.105469 486.878906 753.949219 488.15625 753.757812 C 489.429688 753.566406 490.699219 753.339844 491.960938 753.078125 C 493.226562 752.816406 494.480469 752.519531 495.726562 752.1875 C 496.972656 751.855469 498.207031 751.488281 499.433594 751.089844 C 500.660156 750.6875 501.875 750.253906 503.074219 749.785156 C 504.277344 749.316406 505.464844 748.816406 506.636719 748.28125 C 507.8125 747.746094 508.96875 747.179688 510.113281 746.582031 C 511.253906 745.980469 512.378906 745.351562 513.484375 744.691406 C 514.59375 744.027344 515.679688 743.335938 516.75 742.613281 C 517.816406 741.894531 518.863281 741.140625 519.890625 740.359375 C 520.917969 739.582031 521.921875 738.773438 522.902344 737.9375 C 523.886719 737.097656 524.84375 736.238281 525.777344 735.347656 C 526.710938 734.457031 527.617188 733.542969 528.5 732.601562 C 529.382812 731.660156 530.238281 730.699219 531.066406 729.710938 C 531.894531 728.722656 532.695312 727.710938 533.46875 726.679688 C 534.242188 725.644531 534.984375 724.59375 535.699219 723.519531 C 536.414062 722.445312 537.097656 721.351562 537.75 720.238281 C 538.402344 719.128906 539.023438 718 539.613281 716.851562 C 540.203125 715.707031 540.761719 714.542969 541.289062 713.367188 C 541.8125 712.1875 542.304688 710.996094 542.765625 709.792969 C 543.222656 708.585938 543.648438 707.371094 544.039062 706.140625 C 544.429688 704.910156 544.789062 703.671875 545.109375 702.425781 C 545.433594 701.175781 545.71875 699.917969 545.972656 698.652344 C 546.222656 697.390625 546.441406 696.117188 546.621094 694.84375 C 546.804688 693.566406 546.949219 692.285156 547.058594 691 C 547.167969 689.714844 547.242188 688.429688 547.28125 687.140625 C 547.320312 685.851562 547.324219 684.5625 547.289062 683.273438 C 547.257812 681.980469 547.1875 680.695312 547.082031 679.410156 C 546.976562 678.125 546.835938 676.84375 546.660156 675.566406 C 546.484375 674.289062 546.273438 673.015625 546.023438 671.75 C 545.777344 670.484375 545.496094 669.226562 545.179688 667.976562 C 544.859375 666.726562 544.507812 665.488281 544.121094 664.257812 C 543.738281 663.027344 543.316406 661.808594 542.863281 660.601562 C 542.40625 659.394531 541.921875 658.199219 541.398438 657.019531 C 540.878906 655.839844 540.324219 654.675781 539.738281 653.527344 C 539.15625 652.378906 538.539062 651.246094 537.890625 650.132812 C 537.238281 649.019531 536.5625 647.921875 535.851562 646.84375 C 535.140625 645.769531 534.402344 644.710938 533.632812 643.675781 C 532.867188 642.640625 532.070312 641.628906 531.246094 640.636719 C 530.417969 639.644531 529.566406 638.679688 528.6875 637.734375 C 527.808594 636.789062 526.90625 635.871094 525.976562 634.976562 C 525.046875 634.085938 524.089844 633.21875 523.113281 632.378906 C 522.136719 631.539062 521.132812 630.726562 520.109375 629.941406 C 519.085938 629.15625 518.042969 628.402344 516.976562 627.675781 C 515.910156 626.949219 514.828125 626.25 513.722656 625.585938 C 512.617188 624.921875 511.496094 624.285156 510.355469 623.683594 C 509.214844 623.078125 508.0625 622.507812 506.890625 621.96875 C 505.71875 621.429688 504.53125 620.921875 503.332031 620.449219 C 502.132812 619.976562 500.921875 619.539062 499.695312 619.132812 C 498.472656 618.726562 497.238281 618.355469 495.992188 618.019531 C 494.75 617.683594 493.496094 617.378906 492.234375 617.113281 C 490.972656 616.847656 489.703125 616.613281 488.429688 616.417969 C 487.15625 616.222656 485.875 616.0625 484.59375 615.9375 C 483.308594 615.8125 482.023438 615.722656 480.734375 615.667969 C 479.445312 615.613281 478.15625 615.597656 476.867188 615.617188 C 475.578125 615.632812 474.289062 615.6875 473.003906 615.777344 C 471.714844 615.867188 470.433594 615.996094 469.15625 616.15625 C 467.875 616.316406 466.601562 616.515625 465.332031 616.746094 C 464.0625 616.980469 462.804688 617.246094 461.550781 617.550781 C 460.296875 617.851562 459.050781 618.191406 457.816406 618.5625 C 456.582031 618.933594 455.359375 619.339844 454.148438 619.78125 C 452.933594 620.21875 451.734375 620.695312 450.550781 621.199219 C 449.363281 621.707031 448.195312 622.246094 447.039062 622.820312 C 445.882812 623.390625 444.742188 623.996094 443.621094 624.632812 C 442.5 625.265625 441.394531 625.933594 440.308594 626.628906 C 439.226562 627.328125 438.160156 628.054688 437.117188 628.8125 C 436.070312 629.566406 435.050781 630.351562 434.046875 631.164062 C 433.046875 631.980469 432.070312 632.820312 431.117188 633.6875 C 430.164062 634.554688 429.234375 635.449219 428.328125 636.367188 C 427.425781 637.289062 426.546875 638.230469 425.695312 639.199219 C 424.84375 640.167969 424.019531 641.160156 423.222656 642.175781 C 422.425781 643.1875 421.660156 644.222656 420.921875 645.28125 C 420.183594 646.339844 419.472656 647.414062 418.796875 648.511719 C 418.117188 649.609375 417.46875 650.722656 416.851562 651.855469 C 416.234375 652.988281 415.652344 654.136719 415.097656 655.300781 C 414.546875 656.46875 414.027344 657.644531 413.539062 658.839844 C 413.050781 660.035156 412.597656 661.242188 412.179688 662.460938 C 411.757812 663.679688 411.375 664.910156 411.023438 666.152344 C 410.671875 667.390625 410.355469 668.640625 410.074219 669.898438 C 409.792969 671.160156 409.546875 672.425781 409.335938 673.695312 C 409.125 674.96875 408.949219 676.246094 408.808594 677.527344 C 408.667969 678.808594 408.5625 680.09375 408.496094 681.382812 C 408.425781 682.667969 408.394531 683.957031 408.398438 685.246094 C 408.402344 686.539062 408.441406 687.824219 408.515625 689.113281 C 408.589844 690.402344 408.699219 691.683594 408.847656 692.964844 C 408.996094 694.246094 409.175781 695.523438 409.394531 696.792969 C 409.613281 698.066406 409.863281 699.328125 410.152344 700.585938 C 410.441406 701.84375 410.765625 703.089844 411.121094 704.332031 C 411.480469 705.570312 411.871094 706.796875 412.296875 708.015625 C 412.722656 709.230469 413.183594 710.4375 413.675781 711.628906 C 414.167969 712.820312 414.695312 713.996094 415.253906 715.160156 L 420.199219 725.4375 L 399.640625 735.324219 L 394.699219 725.050781 C 393.984375 723.558594 393.304688 722.050781 392.671875 720.523438 C 392.035156 718.996094 391.441406 717.453125 390.886719 715.894531 C 390.335938 714.335938 389.824219 712.761719 389.355469 711.175781 C 388.886719 709.589844 388.464844 707.992188 388.082031 706.382812 C 387.699219 704.773438 387.359375 703.152344 387.0625 701.527344 C 386.769531 699.898438 386.519531 698.265625 386.308594 696.621094 C 386.101562 694.980469 385.941406 693.335938 385.820312 691.6875 C 385.703125 690.035156 385.628906 688.382812 385.597656 686.730469 C 385.566406 685.078125 385.582031 683.421875 385.640625 681.769531 C 385.699219 680.117188 385.804688 678.46875 385.949219 676.820312 C 386.097656 675.171875 386.289062 673.53125 386.527344 671.890625 C 386.761719 670.253906 387.042969 668.625 387.363281 667.003906 C 387.6875 665.378906 388.054688 663.769531 388.464844 662.164062 C 388.875 660.5625 389.328125 658.972656 389.824219 657.394531 C 390.320312 655.816406 390.859375 654.253906 391.4375 652.703125 C 392.019531 651.15625 392.640625 649.621094 393.300781 648.105469 C 393.964844 646.589844 394.664062 645.09375 395.410156 643.617188 C 396.152344 642.136719 396.933594 640.679688 397.753906 639.246094 C 398.574219 637.808594 399.433594 636.394531 400.332031 635.007812 C 401.230469 633.617188 402.164062 632.25 403.132812 630.914062 C 404.101562 629.574219 405.109375 628.261719 406.148438 626.976562 C 407.191406 625.6875 408.265625 624.433594 409.375 623.203125 C 410.484375 621.976562 411.625 620.78125 412.796875 619.613281 C 413.96875 618.449219 415.171875 617.3125 416.40625 616.210938 C 417.640625 615.109375 418.902344 614.042969 420.195312 613.007812 C 421.488281 611.976562 422.804688 610.976562 424.148438 610.015625 C 425.496094 609.050781 426.863281 608.125 428.261719 607.234375 C 429.65625 606.347656 431.074219 605.496094 432.511719 604.683594 C 433.953125 603.871094 435.414062 603.097656 436.898438 602.363281 C 438.378906 601.628906 439.878906 600.933594 441.398438 600.28125 C 442.917969 599.625 444.457031 599.011719 446.007812 598.441406 C 447.558594 597.871094 449.125 597.34375 450.707031 596.855469 C 452.289062 596.367188 453.882812 595.925781 455.484375 595.523438 C 457.089844 595.121094 458.707031 594.765625 460.328125 594.449219 C 461.953125 594.136719 463.585938 593.867188 465.222656 593.640625 C 466.863281 593.414062 468.503906 593.230469 470.152344 593.089844 C 471.800781 592.953125 473.453125 592.859375 475.105469 592.808594 C 476.757812 592.761719 478.414062 592.753906 480.066406 592.792969 C 481.71875 592.835938 483.371094 592.917969 485.019531 593.046875 C 486.671875 593.175781 488.316406 593.347656 489.953125 593.5625 C 491.59375 593.78125 493.226562 594.039062 494.855469 594.34375 C 496.480469 594.648438 498.097656 594.996094 499.703125 595.390625 C 501.308594 595.78125 502.90625 596.214844 504.488281 596.691406 C 506.074219 597.167969 507.644531 597.6875 509.199219 598.25 C 510.753906 598.8125 512.296875 599.414062 513.820312 600.058594 C 515.34375 600.703125 516.847656 601.386719 518.332031 602.113281 C 519.820312 602.839844 521.285156 603.605469 522.730469 604.40625 C 524.175781 605.210938 525.601562 606.054688 527 606.933594 C 528.402344 607.816406 529.777344 608.734375 531.128906 609.6875 C 532.476562 610.644531 533.800781 611.632812 535.101562 612.660156 C 536.398438 613.683594 537.667969 614.746094 538.90625 615.839844 C 540.148438 616.933594 541.359375 618.058594 542.539062 619.21875 C 543.71875 620.378906 544.867188 621.566406 545.984375 622.789062 C 547.097656 624.011719 548.179688 625.261719 549.230469 626.539062 C 550.277344 627.820312 551.292969 629.125 552.269531 630.457031 C 553.25 631.792969 554.191406 633.152344 555.097656 634.535156 C 556.003906 635.917969 556.871094 637.328125 557.699219 638.757812 C 558.53125 640.1875 559.320312 641.640625 560.074219 643.113281 C 560.824219 644.589844 561.535156 646.082031 562.207031 647.59375 C 562.878906 649.105469 563.507812 650.632812 564.097656 652.179688 C 564.6875 653.722656 565.234375 655.285156 565.742188 656.859375 C 566.246094 658.433594 566.707031 660.023438 567.128906 661.621094 C 567.546875 663.222656 567.925781 664.832031 568.257812 666.453125 C 568.59375 668.074219 568.882812 669.699219 569.128906 671.335938 C 569.375 672.972656 569.574219 674.613281 569.734375 676.261719 C 569.890625 677.90625 570.003906 679.554688 570.074219 681.210938 C 570.140625 682.863281 570.164062 684.515625 570.144531 686.167969 C 570.125 687.824219 570.0625 689.476562 569.953125 691.125 C 569.84375 692.777344 569.691406 694.421875 569.492188 696.066406 C 569.296875 697.707031 569.054688 699.34375 568.769531 700.972656 C 568.484375 702.601562 568.15625 704.222656 567.78125 705.835938 C 567.410156 707.445312 566.996094 709.046875 566.535156 710.636719 C 566.078125 712.226562 565.578125 713.800781 565.03125 715.363281 C 564.488281 716.925781 563.90625 718.472656 563.277344 720.003906 C 562.652344 721.535156 561.984375 723.046875 561.277344 724.542969 C 560.570312 726.039062 559.820312 727.511719 559.035156 728.96875 C 558.246094 730.421875 557.421875 731.855469 556.558594 733.265625 C 555.695312 734.675781 554.792969 736.0625 553.851562 737.425781 C 552.914062 738.785156 551.941406 740.121094 550.929688 741.433594 C 549.917969 742.742188 548.875 744.023438 547.792969 745.277344 C 546.714844 746.53125 545.601562 747.753906 544.457031 748.945312 C 543.3125 750.140625 542.136719 751.300781 540.929688 752.433594 C 539.71875 753.5625 538.484375 754.660156 537.214844 755.722656 C 535.949219 756.789062 534.65625 757.816406 533.332031 758.8125 C 532.011719 759.804688 530.664062 760.761719 529.289062 761.683594 C 527.917969 762.605469 526.519531 763.492188 525.097656 764.335938 C 523.675781 765.183594 522.234375 765.992188 520.769531 766.761719 C 519.304688 767.527344 517.820312 768.257812 516.316406 768.949219 C 514.8125 769.636719 513.292969 770.285156 511.753906 770.890625 C 510.214844 771.5 508.660156 772.066406 507.09375 772.589844 C 505.523438 773.113281 503.941406 773.59375 502.347656 774.03125 C 500.75 774.472656 499.144531 774.867188 497.53125 775.21875 C 495.914062 775.574219 494.289062 775.882812 492.65625 776.144531 C 491.023438 776.410156 489.382812 776.632812 487.738281 776.808594 C 486.09375 776.984375 484.445312 777.117188 482.796875 777.207031 C 481.144531 777.296875 479.492188 777.339844 477.835938 777.339844 Z M 477.828125 777.335938 " fill-opacity="1" fill-rule="nonzero"/></g><g clip-path="url(#99ec136391)"><path fill="#008037" d="M 594.019531 535.289062 C 594.019531 535.289062 551.933594 538.070312 537.972656 569.738281 C 541.011719 577.101562 542.402344 585.347656 542.136719 594.425781 C 544.324219 588.703125 547.429688 582.449219 551.839844 576.472656 C 555.574219 571.417969 560.230469 566.5625 566.054688 562.386719 C 566.054688 562.386719 559.027344 567.800781 552.136719 581.355469 C 547.878906 589.730469 543.679688 601.214844 541.222656 616.460938 C 547.179688 607.902344 570.183594 607.074219 583.867188 590.03125 C 598.308594 572.042969 588.554688 552.414062 594.019531 535.289062 " fill-opacity="1" fill-rule="nonzero"/></g><g clip-path="url(#47f5592401)"><path fill="#008037" d="M 535.898438 616.050781 C 535.898438 616.050781 534.695312 594.945312 521.066406 576.472656 C 517.332031 571.417969 512.675781 566.5625 506.851562 562.386719 C 506.851562 562.386719 513.878906 567.800781 520.769531 581.355469 C 525.027344 589.730469 529.230469 601.214844 531.683594 616.460938 C 525.726562 607.902344 502.722656 607.074219 489.039062 590.03125 C 474.59375 572.042969 484.351562 552.414062 478.886719 535.289062 C 478.886719 535.289062 556.496094 540.410156 535.898438 616.050781 " fill-opacity="1" fill-rule="nonzero"/></g></svg>