<svg xmlns="http://www.w3.org/2000/svg" xmlns:xlink="http://www.w3.org/1999/xlink" width="2000" zoomAndPan="magnify" viewBox="0 0 1500 1499.999933" height="2000" preserveAspectRatio="xMidYMid meet" version="1.0"><defs><clipPath id="36324e8a1e"><path d="M 158 386 L 919 386 L 919 1145.84375 L 158 1145.84375 Z M 158 386 " clip-rule="nonzero"/></clipPath><clipPath id="626efbfa1d"><path d="M 574 386 L 1334 386 L 1334 1145.84375 L 574 1145.84375 Z M 574 386 " clip-rule="nonzero"/></clipPath><clipPath id="e231d7e29f"><path d="M 1201 150 L 1433 150 L 1433 484.5 L 1201 484.5 Z M 1201 150 " clip-rule="nonzero"/></clipPath><clipPath id="ebff5da541"><path d="M 958 150 L 1208 150 L 1208 484.5 L 958 484.5 Z M 958 150 " clip-rule="nonzero"/></clipPath></defs><g clip-path="url(#36324e8a1e)"><path fill="#008037" d="M 538.378906 1145.734375 C 531.8125 1145.726562 525.246094 1145.550781 518.6875 1145.203125 C 512.128906 1144.859375 505.582031 1144.339844 499.050781 1143.65625 C 492.519531 1142.96875 486.007812 1142.113281 479.519531 1141.089844 C 473.03125 1140.0625 466.574219 1138.871094 460.148438 1137.511719 C 453.722656 1136.15625 447.335938 1134.628906 440.988281 1132.9375 C 434.640625 1131.25 428.339844 1129.394531 422.089844 1127.378906 C 415.839844 1125.359375 409.644531 1123.183594 403.507812 1120.84375 C 397.367188 1118.503906 391.296875 1116.007812 385.285156 1113.355469 C 379.277344 1110.703125 373.34375 1107.894531 367.480469 1104.933594 C 361.617188 1101.96875 355.835938 1098.859375 350.132812 1095.597656 C 344.433594 1092.335938 338.820312 1088.929688 333.292969 1085.375 C 327.769531 1081.824219 322.339844 1078.128906 317.007812 1074.292969 C 311.675781 1070.460938 306.445312 1066.488281 301.316406 1062.382812 C 296.191406 1058.277344 291.171875 1054.042969 286.265625 1049.675781 C 281.359375 1045.3125 276.566406 1040.820312 271.890625 1036.207031 C 267.21875 1031.589844 262.667969 1026.859375 258.238281 1022.007812 C 253.808594 1017.15625 249.507812 1012.195312 245.335938 1007.121094 C 241.164062 1002.046875 237.128906 996.871094 233.226562 991.585938 C 229.320312 986.304688 225.558594 980.921875 221.933594 975.445312 C 218.3125 969.964844 214.832031 964.398438 211.496094 958.738281 C 208.160156 953.078125 204.976562 947.335938 201.9375 941.515625 C 198.902344 935.691406 196.019531 929.789062 193.285156 923.816406 C 190.554688 917.84375 187.980469 911.800781 185.5625 905.695312 C 183.144531 899.585938 180.886719 893.421875 178.789062 887.195312 C 176.691406 880.972656 174.757812 874.699219 172.984375 868.375 C 171.214844 862.046875 169.605469 855.683594 168.164062 849.273438 C 166.722656 842.867188 165.449219 836.425781 164.339844 829.949219 C 163.230469 823.476562 162.292969 816.976562 161.519531 810.453125 C 160.75 803.929688 160.148438 797.390625 159.71875 790.835938 C 159.285156 784.285156 159.023438 777.722656 158.933594 771.152344 C 158.84375 764.585938 158.921875 758.019531 159.171875 751.457031 C 159.421875 744.894531 159.839844 738.339844 160.429688 731.796875 C 161.019531 725.257812 161.777344 718.734375 162.707031 712.230469 C 163.632812 705.730469 164.730469 699.253906 165.992188 692.808594 C 167.257812 686.363281 168.6875 679.953125 170.28125 673.582031 C 171.878906 667.210938 173.636719 660.886719 175.5625 654.605469 C 177.488281 648.324219 179.574219 642.097656 181.820312 635.925781 C 184.066406 629.753906 186.472656 623.644531 189.035156 617.597656 C 191.601562 611.550781 194.320312 605.574219 197.195312 599.667969 C 200.066406 593.761719 203.09375 587.933594 206.269531 582.183594 C 209.445312 576.433594 212.769531 570.773438 216.242188 565.195312 C 219.710938 559.617188 223.324219 554.136719 227.078125 548.746094 C 230.832031 543.355469 234.726562 538.066406 238.753906 532.878906 C 242.78125 527.691406 246.945312 522.613281 251.238281 517.640625 C 255.527344 512.667969 259.949219 507.8125 264.492188 503.070312 C 269.035156 498.328125 273.703125 493.707031 278.484375 489.203125 C 283.269531 484.703125 288.167969 480.332031 293.179688 476.085938 C 298.191406 471.839844 303.308594 467.722656 308.53125 463.742188 C 313.757812 459.761719 319.082031 455.917969 324.503906 452.214844 C 329.929688 448.511719 335.445312 444.949219 341.054688 441.53125 C 346.664062 438.113281 352.355469 434.839844 358.136719 431.71875 C 363.914062 428.59375 369.769531 425.621094 375.703125 422.804688 C 381.632812 419.984375 387.636719 417.320312 393.707031 414.8125 C 399.777344 412.304688 405.910156 409.953125 412.101562 407.765625 C 418.292969 405.574219 424.539062 403.546875 430.835938 401.679688 C 437.136719 399.816406 443.476562 398.113281 449.863281 396.574219 C 456.25 395.039062 462.671875 393.667969 469.128906 392.464844 C 475.585938 391.261719 482.070312 390.226562 488.582031 389.359375 C 495.089844 388.488281 501.621094 387.792969 508.167969 387.261719 C 514.714844 386.734375 521.269531 386.375 527.835938 386.1875 C 534.402344 385.996094 540.96875 385.980469 547.535156 386.132812 C 554.101562 386.285156 560.660156 386.605469 567.210938 387.097656 C 573.761719 387.589844 580.292969 388.25 586.808594 389.082031 C 593.324219 389.914062 599.816406 390.914062 606.277344 392.082031 L 652.445312 400.425781 L 635.753906 492.757812 L 589.585938 484.410156 C 584.804688 483.539062 580.003906 482.792969 575.183594 482.167969 C 570.363281 481.539062 565.53125 481.039062 560.683594 480.65625 C 555.839844 480.277344 550.988281 480.023438 546.128906 479.890625 C 541.269531 479.757812 536.410156 479.75 531.550781 479.863281 C 526.691406 479.980469 521.839844 480.21875 516.992188 480.582031 C 512.144531 480.945312 507.308594 481.429688 502.488281 482.039062 C 497.664062 482.648438 492.863281 483.382812 488.078125 484.234375 C 483.292969 485.089844 478.53125 486.066406 473.796875 487.160156 C 469.0625 488.257812 464.355469 489.476562 459.683594 490.8125 C 455.011719 492.148438 450.375 493.601562 445.773438 495.175781 C 441.175781 496.75 436.621094 498.4375 432.105469 500.242188 C 427.59375 502.046875 423.128906 503.964844 418.714844 506 C 414.300781 508.03125 409.9375 510.175781 405.632812 512.429688 C 401.328125 514.6875 397.082031 517.050781 392.894531 519.519531 C 388.710938 521.992188 384.589844 524.566406 380.535156 527.25 C 376.480469 529.929688 372.5 532.714844 368.585938 535.597656 C 364.675781 538.480469 360.839844 541.464844 357.078125 544.542969 C 353.316406 547.625 349.636719 550.796875 346.039062 554.066406 C 342.441406 557.332031 338.929688 560.691406 335.5 564.136719 C 332.074219 567.582031 328.734375 571.113281 325.488281 574.730469 C 322.242188 578.347656 319.089844 582.042969 316.03125 585.820312 C 312.96875 589.597656 310.007812 593.453125 307.148438 597.382812 C 304.285156 601.308594 301.523438 605.308594 298.867188 609.375 C 296.207031 613.445312 293.652344 617.578125 291.207031 621.777344 C 288.757812 625.976562 286.417969 630.238281 284.1875 634.554688 C 281.957031 638.875 279.835938 643.246094 277.828125 647.671875 C 275.820312 652.097656 273.925781 656.574219 272.148438 661.097656 C 270.367188 665.621094 268.703125 670.183594 267.15625 674.792969 C 265.609375 679.402344 264.179688 684.046875 262.871094 688.726562 C 261.558594 693.40625 260.367188 698.117188 259.296875 702.859375 C 258.226562 707.601562 257.28125 712.367188 256.453125 717.15625 C 255.625 721.945312 254.917969 726.753906 254.335938 731.578125 C 253.753906 736.402344 253.296875 741.242188 252.960938 746.089844 C 252.625 750.9375 252.414062 755.792969 252.324219 760.652344 C 252.234375 765.511719 252.269531 770.371094 252.429688 775.230469 C 252.589844 780.089844 252.871094 784.9375 253.277344 789.78125 C 253.6875 794.625 254.214844 799.457031 254.867188 804.273438 C 255.519531 809.089844 256.296875 813.886719 257.195312 818.664062 C 258.089844 823.441406 259.109375 828.191406 260.25 832.917969 C 261.386719 837.640625 262.648438 842.335938 264.027344 846.996094 C 265.40625 851.65625 266.902344 856.28125 268.515625 860.863281 C 270.128906 865.449219 271.859375 869.988281 273.707031 874.488281 C 275.550781 878.984375 277.511719 883.429688 279.582031 887.824219 C 281.65625 892.222656 283.839844 896.5625 286.132812 900.847656 C 288.425781 905.132812 290.828125 909.359375 293.335938 913.523438 C 295.84375 917.683594 298.460938 921.78125 301.175781 925.8125 C 303.894531 929.839844 306.714844 933.796875 309.632812 937.683594 C 312.554688 941.570312 315.570312 945.378906 318.683594 949.113281 C 321.796875 952.84375 325.003906 956.496094 328.304688 960.0625 C 331.605469 963.632812 334.992188 967.113281 338.46875 970.511719 C 341.945312 973.90625 345.507812 977.210938 349.15625 980.425781 C 352.800781 983.640625 356.527344 986.761719 360.332031 989.785156 C 364.136719 992.808594 368.015625 995.734375 371.96875 998.5625 C 375.921875 1001.390625 379.945312 1004.113281 384.039062 1006.734375 C 388.132812 1009.359375 392.289062 1011.875 396.511719 1014.285156 C 400.730469 1016.695312 405.011719 1018.996094 409.347656 1021.1875 C 413.6875 1023.378906 418.078125 1025.457031 422.523438 1027.425781 C 426.96875 1029.394531 431.460938 1031.246094 436 1032.988281 C 440.539062 1034.726562 445.117188 1036.347656 449.738281 1037.851562 C 454.359375 1039.359375 459.019531 1040.746094 463.710938 1042.011719 C 468.402344 1043.28125 473.125 1044.429688 477.875 1045.457031 C 482.625 1046.484375 487.398438 1047.390625 492.195312 1048.175781 C 496.992188 1048.957031 501.808594 1049.621094 506.636719 1050.160156 C 511.46875 1050.695312 516.308594 1051.113281 521.160156 1051.40625 C 526.015625 1051.695312 530.871094 1051.863281 535.730469 1051.910156 C 540.589844 1051.953125 545.449219 1051.875 550.304688 1051.671875 C 555.164062 1051.46875 560.011719 1051.140625 564.851562 1050.691406 C 569.691406 1050.238281 574.515625 1049.667969 579.324219 1048.96875 C 584.136719 1048.273438 588.925781 1047.457031 593.695312 1046.515625 C 598.460938 1045.574219 603.203125 1044.515625 607.917969 1043.332031 C 612.632812 1042.148438 617.316406 1040.847656 621.964844 1039.425781 C 626.613281 1038.007812 631.222656 1036.46875 635.789062 1034.8125 C 640.359375 1033.15625 644.886719 1031.386719 649.367188 1029.5 C 653.84375 1027.613281 658.273438 1025.613281 662.652344 1023.5 C 667.027344 1021.390625 671.351562 1019.167969 675.613281 1016.835938 C 679.878906 1014.503906 684.082031 1012.0625 688.222656 1009.515625 C 692.363281 1006.96875 696.433594 1004.320312 700.4375 1001.566406 C 704.445312 998.8125 708.375 995.957031 712.234375 993 C 716.097656 990.046875 719.878906 986.996094 723.582031 983.847656 C 727.285156 980.703125 730.90625 977.460938 734.445312 974.128906 C 737.984375 970.796875 741.4375 967.378906 744.800781 963.871094 C 748.164062 960.363281 751.4375 956.769531 754.621094 953.097656 C 757.800781 949.421875 760.886719 945.667969 763.878906 941.835938 C 766.867188 938.003906 769.757812 934.097656 772.550781 930.117188 C 775.339844 926.140625 778.027344 922.089844 780.613281 917.976562 C 783.199219 913.859375 785.675781 909.679688 788.046875 905.4375 C 790.417969 901.195312 792.679688 896.894531 794.832031 892.535156 C 796.984375 888.175781 799.027344 883.765625 800.953125 879.304688 C 802.882812 874.84375 804.695312 870.335938 806.390625 865.78125 C 808.089844 861.226562 809.671875 856.632812 811.132812 851.996094 C 812.597656 847.363281 813.941406 842.691406 815.167969 837.988281 C 816.394531 833.285156 817.5 828.554688 818.484375 823.792969 C 819.46875 819.035156 820.332031 814.25 821.070312 809.449219 C 821.8125 804.644531 822.429688 799.824219 822.925781 794.988281 C 823.421875 790.152344 823.792969 785.308594 824.039062 780.453125 C 824.289062 775.601562 824.414062 770.742188 824.414062 765.882812 C 824.441406 755.414062 823.890625 744.980469 822.761719 734.574219 C 821.632812 724.167969 819.933594 713.855469 817.664062 703.636719 C 815.390625 693.417969 812.5625 683.359375 809.179688 673.453125 C 805.792969 663.546875 801.871094 653.859375 797.414062 644.390625 L 777.476562 601.964844 L 862.386719 562.074219 L 882.339844 604.535156 C 885.714844 611.734375 888.859375 619.035156 891.773438 626.433594 C 894.6875 633.835938 897.371094 641.316406 899.816406 648.886719 C 902.261719 656.453125 904.46875 664.089844 906.433594 671.796875 C 908.398438 679.503906 910.125 687.265625 911.601562 695.078125 C 913.082031 702.894531 914.3125 710.746094 915.300781 718.636719 C 916.285156 726.53125 917.023438 734.445312 917.511719 742.382812 C 918 750.320312 918.242188 758.265625 918.230469 766.21875 C 918.222656 774.175781 917.960938 782.121094 917.453125 790.054688 C 916.945312 797.992188 916.1875 805.90625 915.183594 813.796875 C 914.175781 821.683594 912.925781 829.535156 911.425781 837.347656 C 909.925781 845.15625 908.1875 852.914062 906.199219 860.613281 C 904.214844 868.316406 901.988281 875.949219 899.527344 883.507812 C 897.0625 891.070312 894.363281 898.546875 891.425781 905.941406 C 888.492188 913.332031 885.332031 920.625 881.9375 927.820312 C 878.546875 935.011719 874.933594 942.09375 871.097656 949.058594 C 867.257812 956.027344 863.207031 962.867188 858.941406 969.578125 C 854.675781 976.292969 850.203125 982.863281 845.527344 989.292969 C 840.847656 995.726562 835.972656 1002.003906 830.898438 1008.128906 C 825.824219 1014.257812 820.566406 1020.214844 815.117188 1026.011719 C 809.671875 1031.804688 804.046875 1037.425781 798.25 1042.867188 C 792.449219 1048.308594 786.484375 1053.5625 780.355469 1058.632812 C 774.226562 1063.699219 767.941406 1068.570312 761.507812 1073.242188 C 755.070312 1077.917969 748.496094 1082.382812 741.78125 1086.644531 C 735.0625 1090.902344 728.222656 1094.949219 721.25 1098.78125 C 714.28125 1102.609375 707.199219 1106.21875 700 1109.605469 C 692.804688 1112.992188 685.507812 1116.148438 678.113281 1119.074219 C 670.71875 1122.003906 663.242188 1124.695312 655.675781 1127.15625 C 648.113281 1129.613281 640.480469 1131.832031 632.777344 1133.8125 C 625.074219 1135.789062 617.316406 1137.523438 609.503906 1139.015625 C 601.691406 1140.507812 593.839844 1141.753906 585.949219 1142.753906 C 578.058594 1143.753906 570.144531 1144.503906 562.207031 1145.003906 C 554.269531 1145.507812 546.324219 1145.757812 538.371094 1145.761719 Z M 538.378906 1145.734375 " fill-opacity="1" fill-rule="nonzero"/></g><g clip-path="url(#626efbfa1d)"><path fill="#008037" d="M 954.167969 1145.785156 C 930.664062 1145.785156 907.367188 1143.609375 884.273438 1139.261719 L 838.167969 1130.585938 L 855.554688 1038.390625 L 901.652344 1047.074219 C 906.863281 1048.050781 912.101562 1048.882812 917.359375 1049.570312 C 922.621094 1050.253906 927.894531 1050.792969 933.183594 1051.183594 C 938.472656 1051.574219 943.769531 1051.820312 949.070312 1051.917969 C 954.375 1052.011719 959.675781 1051.960938 964.976562 1051.761719 C 970.277344 1051.5625 975.566406 1051.21875 980.847656 1050.726562 C 986.128906 1050.230469 991.390625 1049.589844 996.636719 1048.804688 C 1001.882812 1048.019531 1007.101562 1047.085938 1012.292969 1046.007812 C 1017.488281 1044.933594 1022.644531 1043.710938 1027.773438 1042.347656 C 1032.898438 1040.980469 1037.980469 1039.476562 1043.019531 1037.828125 C 1048.0625 1036.179688 1053.054688 1034.394531 1057.996094 1032.46875 C 1062.9375 1030.542969 1067.820312 1028.480469 1072.648438 1026.28125 C 1077.476562 1024.085938 1082.238281 1021.753906 1086.933594 1019.289062 C 1091.632812 1016.828125 1096.257812 1014.234375 1100.808594 1011.515625 C 1105.363281 1008.792969 1109.835938 1005.949219 1114.230469 1002.980469 C 1118.625 1000.007812 1122.933594 996.917969 1127.15625 993.710938 C 1131.378906 990.5 1135.507812 987.175781 1139.542969 983.734375 C 1143.582031 980.296875 1147.519531 976.746094 1151.359375 973.085938 C 1155.199219 969.429688 1158.933594 965.664062 1162.5625 961.796875 C 1166.191406 957.929688 1169.710938 953.964844 1173.121094 949.902344 C 1176.527344 945.839844 1179.820312 941.683594 1183 937.4375 C 1186.175781 933.191406 1189.234375 928.859375 1192.167969 924.441406 C 1195.105469 920.027344 1197.917969 915.53125 1200.601562 910.957031 C 1203.289062 906.382812 1205.84375 901.738281 1208.273438 897.023438 C 1210.699219 892.308594 1212.992188 887.527344 1215.152344 882.683594 C 1217.316406 877.839844 1219.339844 872.941406 1221.226562 867.984375 C 1223.113281 863.027344 1224.863281 858.023438 1226.472656 852.96875 C 1228.082031 847.914062 1229.546875 842.820312 1230.875 837.683594 C 1232.199219 832.546875 1233.378906 827.378906 1234.417969 822.179688 C 1235.457031 816.976562 1236.347656 811.75 1237.09375 806.5 C 1237.839844 801.25 1238.441406 795.980469 1238.894531 790.699219 C 1239.347656 785.414062 1239.652344 780.121094 1239.808594 774.820312 C 1239.96875 769.515625 1239.980469 764.214844 1239.839844 758.914062 C 1239.703125 753.613281 1239.417969 748.316406 1238.988281 743.03125 C 1238.554688 737.746094 1237.976562 732.476562 1237.25 727.222656 C 1236.527344 721.96875 1235.65625 716.738281 1234.636719 711.53125 C 1233.621094 706.328125 1232.460938 701.15625 1231.15625 696.015625 C 1229.851562 690.875 1228.402344 685.773438 1226.816406 680.710938 C 1225.226562 675.652344 1223.496094 670.640625 1221.628906 665.675781 C 1219.761719 660.710938 1217.757812 655.804688 1215.613281 650.953125 C 1213.472656 646.101562 1211.199219 641.3125 1208.789062 636.585938 C 1206.382812 631.859375 1203.84375 627.207031 1201.175781 622.621094 C 1198.507812 618.039062 1195.714844 613.53125 1192.796875 609.101562 C 1189.878906 604.675781 1186.839844 600.332031 1183.679688 596.070312 C 1180.519531 591.8125 1177.242188 587.644531 1173.847656 583.566406 C 1170.457031 579.492188 1166.953125 575.511719 1163.339844 571.628906 C 1159.722656 567.75 1156.003906 563.96875 1152.179688 560.296875 C 1148.355469 556.621094 1144.429688 553.054688 1140.40625 549.601562 C 1136.382812 546.144531 1132.265625 542.804688 1128.058594 539.578125 C 1123.847656 536.351562 1119.554688 533.242188 1115.171875 530.257812 C 1110.789062 527.269531 1106.324219 524.40625 1101.785156 521.667969 C 1097.242188 518.929688 1092.628906 516.316406 1087.941406 513.835938 C 1083.253906 511.355469 1078.5 509.003906 1073.683594 506.789062 C 1068.863281 504.570312 1063.988281 502.488281 1059.054688 500.542969 C 1054.117188 498.597656 1049.132812 496.792969 1044.101562 495.125 C 1039.066406 493.457031 1033.988281 491.929688 1028.867188 490.546875 C 1023.75 489.160156 1018.59375 487.917969 1013.40625 486.820312 C 1008.21875 485.722656 1003 484.769531 997.757812 483.964844 C 992.519531 483.15625 987.257812 482.496094 981.980469 481.980469 C 976.699219 481.464844 971.410156 481.097656 966.113281 480.878906 C 960.8125 480.660156 955.511719 480.585938 950.207031 480.664062 C 944.90625 480.738281 939.609375 480.960938 934.316406 481.332031 C 929.027344 481.703125 923.75 482.21875 918.488281 482.882812 C 913.226562 483.546875 907.984375 484.359375 902.769531 485.316406 C 897.550781 486.269531 892.367188 487.371094 887.210938 488.617188 C 882.054688 489.863281 876.9375 491.25 871.859375 492.78125 C 866.78125 494.308594 861.75 495.980469 856.765625 497.789062 C 851.78125 499.601562 846.847656 501.546875 841.972656 503.632812 C 837.09375 505.71875 832.28125 507.9375 827.527344 510.289062 C 822.773438 512.644531 818.089844 515.128906 813.476562 517.742188 C 808.859375 520.355469 804.320312 523.097656 799.859375 525.964844 C 795.398438 528.832031 791.019531 531.820312 786.722656 534.929688 C 782.425781 538.039062 778.222656 541.269531 774.105469 544.613281 C 769.988281 547.957031 765.96875 551.414062 762.046875 554.984375 C 758.125 558.554688 754.304688 562.226562 750.585938 566.011719 C 746.867188 569.792969 743.253906 573.675781 739.753906 577.65625 C 736.25 581.640625 732.859375 585.71875 729.585938 589.890625 C 726.3125 594.0625 723.152344 598.320312 720.117188 602.667969 C 717.078125 607.015625 714.164062 611.441406 711.371094 615.953125 C 708.582031 620.464844 705.917969 625.046875 703.378906 629.707031 C 700.84375 634.363281 698.441406 639.089844 696.167969 643.878906 C 693.894531 648.671875 691.757812 653.523438 689.753906 658.433594 C 687.75 663.347656 685.886719 668.308594 684.160156 673.324219 C 682.433594 678.339844 680.847656 683.398438 679.40625 688.5 C 677.960938 693.605469 676.660156 698.746094 675.5 703.921875 C 674.34375 709.097656 673.332031 714.300781 672.460938 719.53125 C 671.59375 724.765625 670.871094 730.015625 670.296875 735.289062 C 669.71875 740.5625 669.292969 745.847656 669.011719 751.140625 C 668.726562 756.4375 668.59375 761.738281 668.609375 767.042969 C 668.621094 772.347656 668.785156 777.644531 669.09375 782.941406 C 669.402344 788.234375 669.859375 793.515625 670.460938 798.785156 C 671.0625 804.054688 671.8125 809.304688 672.707031 814.53125 C 673.605469 819.757812 674.644531 824.957031 675.828125 830.128906 C 677.015625 835.296875 678.34375 840.429688 679.8125 845.527344 C 681.285156 850.621094 682.894531 855.671875 684.648438 860.679688 C 686.402344 865.683594 688.292969 870.636719 690.320312 875.539062 C 692.347656 880.4375 694.511719 885.277344 696.808594 890.058594 L 717.144531 932.335938 L 632.601562 973 L 612.273438 930.738281 C 609.324219 924.605469 606.542969 918.398438 603.929688 912.121094 C 601.3125 905.839844 598.871094 899.492188 596.597656 893.082031 C 594.324219 886.667969 592.222656 880.199219 590.296875 873.675781 C 588.371094 867.148438 586.621094 860.578125 585.050781 853.960938 C 583.476562 847.339844 582.085938 840.683594 580.871094 833.988281 C 579.65625 827.296875 578.621094 820.574219 577.769531 813.824219 C 576.917969 807.074219 576.246094 800.308594 575.757812 793.523438 C 575.269531 786.738281 574.960938 779.945312 574.839844 773.140625 C 574.714844 766.339844 574.773438 759.539062 575.015625 752.738281 C 575.257812 745.941406 575.683594 739.152344 576.289062 732.378906 C 576.898438 725.601562 577.683594 718.847656 578.65625 712.113281 C 579.625 705.378906 580.777344 698.675781 582.105469 692.003906 C 583.4375 685.332031 584.945312 678.703125 586.632812 672.113281 C 588.320312 665.519531 590.183594 658.980469 592.222656 652.492188 C 594.261719 646 596.472656 639.570312 598.859375 633.199219 C 601.242188 626.824219 603.796875 620.523438 606.523438 614.289062 C 609.246094 608.054688 612.132812 601.898438 615.1875 595.820312 C 618.242188 589.742188 621.460938 583.75 624.835938 577.84375 C 628.214844 571.9375 631.746094 566.125 635.4375 560.410156 C 639.125 554.695312 642.964844 549.082031 646.957031 543.574219 C 650.949219 538.0625 655.085938 532.664062 659.367188 527.378906 C 663.648438 522.089844 668.070312 516.921875 672.628906 511.875 C 677.1875 506.824219 681.878906 501.902344 686.703125 497.105469 C 691.527344 492.308594 696.476562 487.644531 701.550781 483.113281 C 706.628906 478.582031 711.820312 474.191406 717.132812 469.941406 C 722.441406 465.6875 727.863281 461.582031 733.394531 457.621094 C 738.925781 453.664062 744.5625 449.855469 750.296875 446.199219 C 756.035156 442.539062 761.867188 439.039062 767.789062 435.695312 C 773.714844 432.351562 779.726562 429.171875 785.820312 426.152344 C 791.917969 423.128906 798.089844 420.277344 804.339844 417.589844 C 810.589844 414.898438 816.90625 412.382812 823.292969 410.03125 C 829.675781 407.683594 836.121094 405.507812 842.621094 403.507812 C 849.125 401.503906 855.675781 399.679688 862.273438 398.027344 C 868.875 396.378906 875.511719 394.90625 882.191406 393.613281 C 888.871094 392.320312 895.582031 391.207031 902.320312 390.277344 C 909.058594 389.34375 915.816406 388.59375 922.597656 388.027344 C 929.375 387.457031 936.167969 387.070312 942.964844 386.867188 C 949.765625 386.664062 956.566406 386.644531 963.367188 386.804688 C 970.171875 386.96875 976.960938 387.3125 983.746094 387.839844 C 990.527344 388.367188 997.289062 389.074219 1004.035156 389.96875 C 1010.78125 390.859375 1017.496094 391.929688 1024.183594 393.183594 C 1030.871094 394.433594 1037.519531 395.867188 1044.128906 397.476562 C 1050.738281 399.085938 1057.300781 400.871094 1063.8125 402.832031 C 1070.328125 404.796875 1076.785156 406.933594 1083.183594 409.242188 C 1089.582031 411.550781 1095.914062 414.03125 1102.179688 416.683594 C 1108.445312 419.332031 1114.636719 422.148438 1120.75 425.132812 C 1126.863281 428.113281 1132.894531 431.261719 1138.839844 434.566406 C 1144.785156 437.875 1150.636719 441.339844 1156.394531 444.960938 C 1162.152344 448.582031 1167.8125 452.359375 1173.367188 456.285156 C 1178.921875 460.210938 1184.367188 464.28125 1189.707031 468.503906 C 1195.042969 472.722656 1200.261719 477.082031 1205.363281 481.582031 C 1210.46875 486.082031 1215.445312 490.714844 1220.296875 495.480469 C 1225.152344 500.25 1229.875 505.144531 1234.464844 510.164062 C 1239.054688 515.1875 1243.503906 520.328125 1247.820312 525.585938 C 1252.132812 530.847656 1256.300781 536.222656 1260.324219 541.707031 C 1264.351562 547.191406 1268.226562 552.78125 1271.949219 558.472656 C 1275.675781 564.167969 1279.242188 569.957031 1282.65625 575.839844 C 1286.066406 581.726562 1289.320312 587.699219 1292.410156 593.757812 C 1295.503906 599.820312 1298.429688 605.957031 1301.191406 612.175781 C 1303.953125 618.390625 1306.546875 624.679688 1308.96875 631.035156 C 1311.394531 637.394531 1313.644531 643.808594 1315.722656 650.289062 C 1317.800781 656.765625 1319.703125 663.296875 1321.429688 669.875 C 1323.160156 676.457031 1324.707031 683.078125 1326.078125 689.742188 C 1327.449219 696.40625 1328.640625 703.101562 1329.652344 709.828125 C 1330.664062 716.554688 1331.492188 723.304688 1332.140625 730.078125 C 1332.789062 736.851562 1333.257812 743.632812 1333.539062 750.433594 C 1333.824219 757.230469 1333.921875 764.027344 1333.839844 770.832031 C 1333.757812 777.632812 1333.496094 784.429688 1333.046875 791.21875 C 1332.597656 798.007812 1331.96875 804.777344 1331.15625 811.53125 C 1330.347656 818.285156 1329.351562 825.015625 1328.179688 831.714844 C 1327.007812 838.417969 1325.652344 845.082031 1324.121094 851.710938 C 1322.589844 858.339844 1320.878906 864.921875 1318.996094 871.457031 C 1317.109375 877.996094 1315.046875 884.476562 1312.8125 890.902344 C 1310.578125 897.328125 1308.175781 903.6875 1305.597656 909.984375 C 1303.019531 916.28125 1300.277344 922.503906 1297.367188 928.652344 C 1294.457031 934.800781 1291.382812 940.867188 1288.144531 946.851562 C 1284.90625 952.835938 1281.511719 958.726562 1277.957031 964.527344 C 1274.402344 970.328125 1270.695312 976.03125 1266.835938 981.632812 C 1262.972656 987.234375 1258.964844 992.726562 1254.808594 998.113281 C 1250.652344 1003.5 1246.355469 1008.769531 1241.917969 1013.925781 C 1237.476562 1019.078125 1232.902344 1024.109375 1228.191406 1029.019531 C 1223.480469 1033.929688 1218.644531 1038.707031 1213.675781 1043.355469 C 1208.710938 1048.003906 1203.621094 1052.515625 1198.410156 1056.890625 C 1193.199219 1061.265625 1187.878906 1065.5 1182.441406 1069.589844 C 1177.003906 1073.675781 1171.460938 1077.617188 1165.8125 1081.40625 C 1160.160156 1085.199219 1154.414062 1088.835938 1148.570312 1092.316406 C 1142.726562 1095.796875 1136.792969 1099.121094 1130.769531 1102.28125 C 1124.746094 1105.445312 1118.640625 1108.445312 1112.457031 1111.277344 C 1106.273438 1114.113281 1100.015625 1116.78125 1093.6875 1119.277344 C 1087.359375 1121.777344 1080.96875 1124.101562 1074.515625 1126.257812 C 1068.0625 1128.410156 1061.558594 1130.390625 1054.996094 1132.195312 C 1048.4375 1134 1041.835938 1135.625 1035.1875 1137.074219 C 1028.542969 1138.523438 1021.859375 1139.796875 1015.144531 1140.886719 C 1008.429688 1141.976562 1001.691406 1142.882812 994.925781 1143.613281 C 988.160156 1144.339844 981.382812 1144.886719 974.589844 1145.25 C 967.796875 1145.613281 961 1145.792969 954.195312 1145.789062 Z M 954.167969 1145.785156 " fill-opacity="1" fill-rule="nonzero"/></g><g clip-path="url(#e231d7e29f)"><path fill="#008037" d="M 1432.003906 150.296875 C 1432.003906 150.296875 1258.921875 161.730469 1201.496094 291.980469 C 1214.003906 322.257812 1219.71875 356.167969 1218.621094 393.507812 C 1227.621094 369.96875 1240.402344 344.257812 1258.535156 319.679688 C 1273.882812 298.890625 1293.046875 278.910156 1316.992188 261.742188 C 1316.992188 261.742188 1288.082031 284.007812 1259.75 339.757812 C 1242.246094 374.207031 1224.964844 421.4375 1214.859375 484.132812 C 1239.367188 448.933594 1333.976562 445.527344 1390.25 375.4375 C 1449.652344 301.464844 1409.523438 220.730469 1432.003906 150.296875 " fill-opacity="1" fill-rule="nonzero"/></g><g clip-path="url(#ebff5da541)"><path fill="#008037" d="M 1192.964844 482.445312 C 1192.964844 482.445312 1188.023438 395.652344 1131.960938 319.679688 C 1116.617188 298.890625 1097.453125 278.910156 1073.507812 261.742188 C 1073.507812 261.742188 1102.414062 284.007812 1130.75 339.757812 C 1148.253906 374.207031 1165.539062 421.4375 1175.640625 484.132812 C 1151.132812 448.933594 1056.523438 445.527344 1000.25 375.4375 C 940.847656 301.464844 980.976562 220.730469 958.492188 150.296875 C 958.492188 150.296875 1277.683594 171.367188 1192.964844 482.445312 " fill-opacity="1" fill-rule="nonzero"/></g></svg>